# MagicaVoxel @ Ephtracy

# group
g Pirate

# material
mtllib Pirate.mtl
usemtl palette

# normals
vn -1 0 0
vn 1 0 0
vn 0 0 1
vn 0 0 -1
vn 0 -1 0
vn 0 1 0

# texcoords
vt 0.150391 0.5
vt 0.775391 0.5
vt 0.791016 0.5
vt 0.912109 0.5
vt 0.990234 0.5
vt 0.994141 0.5

# verts
v -10 9 2
v -10 9 1
v -10 10 2
v -10 10 1
v -7 16 3
v -7 16 -0
v -7 17 3
v -7 17 -0
v -6 15 2
v -6 15 1
v -6 16 4
v -6 16 3
v -6 16 2
v -6 16 1
v -6 16 -0
v -6 16 -1
v -6 17 4
v -6 17 3
v -6 17 -0
v -6 17 -1
v -6 18 3
v -6 18 -0
v -5 0 2
v -5 0 1
v -5 2 2
v -5 2 1
v -5 6 3
v -5 6 2
v -5 6 1
v -5 6 -0
v -5 7 3
v -5 7 -0
v -5 8 3
v -5 8 -0
v -5 9 3
v -5 9 2
v -5 9 1
v -5 9 -0
v -5 10 3
v -5 10 2
v -5 10 1
v -5 10 -0
v -5 11 3
v -5 11 -0
v -5 13 3
v -5 13 -0
v -5 14 3
v -5 14 2
v -5 15 3
v -5 15 2
v -5 15 1
v -5 16 5
v -5 16 4
v -5 16 3
v -5 16 2
v -5 16 1
v -5 16 -0
v -5 16 -1
v -5 16 -2
v -5 17 5
v -5 17 4
v -5 17 3
v -5 17 -0
v -5 17 -1
v -5 17 -2
v -5 18 4
v -5 18 3
v -5 18 -0
v -5 18 -1
v -5 19 3
v -5 19 -0
v -4 5 3
v -4 5 2
v -4 5 1
v -4 5 -0
v -4 6 3
v -4 6 2
v -4 6 1
v -4 6 -0
v -4 11 3
v -4 11 -0
v -4 12 3
v -4 12 -0
v -3 12 2
v -3 12 1
v -3 13 2
v -3 13 1
v 0 0 2
v 0 0 1
v 0 2 2
v 0 2 1
v 0 4 2
v 0 4 1
v -4 0 2
v -4 0 1
v -4 2 2
v -4 2 1
v -4 4 2
v -4 4 1
v -3 16 5
v -3 16 4
v -3 16 -1
v -3 16 -2
v -3 17 5
v -3 17 4
v -3 17 3
v -3 17 -0
v -3 17 -1
v -3 17 -2
v -3 18 4
v -3 18 3
v -3 18 -0
v -3 18 -1
v -3 19 3
v -3 19 -0
v -1 12 2
v -1 12 1
v -1 13 2
v -1 13 1
v 0 5 3
v 0 5 2
v 0 5 1
v 0 5 -0
v 0 6 3
v 0 6 2
v 0 6 1
v 0 6 -0
v 0 11 3
v 0 11 -0
v 0 12 3
v 0 12 -0
v 1 0 2
v 1 0 1
v 1 2 2
v 1 2 1
v 1 6 3
v 1 6 2
v 1 6 1
v 1 6 -0
v 1 7 3
v 1 7 -0
v 1 8 3
v 1 8 -0
v 1 9 3
v 1 9 2
v 1 9 1
v 1 9 -0
v 1 10 3
v 1 10 2
v 1 10 1
v 1 10 -0
v 1 11 3
v 1 11 -0
v 1 13 3
v 1 13 -0
v 1 15 2
v 1 15 1
v 1 16 4
v 1 16 3
v 1 16 2
v 1 16 1
v 1 16 -0
v 1 16 -1
v 1 17 4
v 1 17 3
v 1 17 -0
v 1 17 -1
v 1 18 3
v 1 18 -0
v 2 15 2
v 2 15 1
v 2 16 3
v 2 16 2
v 2 16 1
v 2 16 -0
v 2 17 3
v 2 17 -0
v 6 9 2
v 6 9 1
v 6 10 2
v 6 10 1
v -5 16 5
v -5 17 5
v -3 16 5
v -3 17 5
v -6 16 4
v -6 17 4
v -5 16 4
v -5 17 4
v -5 18 4
v -3 16 4
v -3 17 4
v -3 18 4
v 1 16 4
v 1 17 4
v -7 16 3
v -7 17 3
v -6 16 3
v -6 17 3
v -6 18 3
v -5 6 3
v -5 7 3
v -5 8 3
v -5 9 3
v -5 10 3
v -5 11 3
v -5 13 3
v -5 14 3
v -5 15 3
v -5 16 3
v -5 17 3
v -5 18 3
v -5 19 3
v -4 5 3
v -4 6 3
v -4 11 3
v -4 12 3
v -4 14 3
v -4 15 3
v -4 16 3
v -3 13 3
v -3 14 3
v -3 15 3
v -3 16 3
v -3 17 3
v -3 18 3
v -3 19 3
v -1 13 3
v -1 14 3
v -1 15 3
v -1 16 3
v 0 5 3
v 0 6 3
v 0 11 3
v 0 12 3
v 0 15 3
v 0 16 3
v 1 6 3
v 1 7 3
v 1 8 3
v 1 9 3
v 1 10 3
v 1 11 3
v 1 13 3
v 1 16 3
v 1 17 3
v 1 18 3
v 2 16 3
v 2 17 3
v -10 9 2
v -10 10 2
v -8 9 2
v -8 10 2
v -6 15 2
v -6 16 2
v -5 0 2
v -5 2 2
v -5 6 2
v -5 9 2
v -5 10 2
v -5 15 2
v -5 16 2
v -4 0 2
v -4 2 2
v -4 4 2
v -4 5 2
v -4 6 2
v -3 12 2
v -3 13 2
v -1 12 2
v -1 13 2
v 0 0 2
v 0 2 2
v 0 4 2
v 0 5 2
v 0 6 2
v 1 0 2
v 1 2 2
v 1 6 2
v 1 9 2
v 1 10 2
v 1 15 2
v 1 16 2
v 2 15 2
v 2 16 2
v 4 9 2
v 4 10 2
v 6 9 2
v 6 10 2
v -10 9 1
v -10 10 1
v -8 9 1
v -8 10 1
v -6 15 1
v -6 16 1
v -5 0 1
v -5 2 1
v -5 6 1
v -5 9 1
v -5 10 1
v -5 15 1
v -5 16 1
v -4 0 1
v -4 2 1
v -4 4 1
v -4 5 1
v -4 6 1
v -3 12 1
v -3 13 1
v -1 12 1
v -1 13 1
v 0 0 1
v 0 2 1
v 0 4 1
v 0 5 1
v 0 6 1
v 1 0 1
v 1 2 1
v 1 6 1
v 1 9 1
v 1 10 1
v 1 15 1
v 1 16 1
v 2 15 1
v 2 16 1
v 4 9 1
v 4 10 1
v 6 9 1
v 6 10 1
v -7 16 -0
v -7 17 -0
v -6 16 -0
v -6 17 -0
v -6 18 -0
v -5 6 -0
v -5 7 -0
v -5 8 -0
v -5 9 -0
v -5 10 -0
v -5 11 -0
v -5 13 -0
v -5 16 -0
v -5 17 -0
v -5 18 -0
v -5 19 -0
v -4 5 -0
v -4 6 -0
v -4 11 -0
v -4 12 -0
v -3 17 -0
v -3 18 -0
v -3 19 -0
v 0 5 -0
v 0 6 -0
v 0 11 -0
v 0 12 -0
v 1 6 -0
v 1 7 -0
v 1 8 -0
v 1 9 -0
v 1 10 -0
v 1 11 -0
v 1 13 -0
v 1 16 -0
v 1 17 -0
v 1 18 -0
v 2 16 -0
v 2 17 -0
v -6 16 -1
v -6 17 -1
v -5 16 -1
v -5 17 -1
v -5 18 -1
v -3 16 -1
v -3 17 -1
v -3 18 -1
v 1 16 -1
v 1 17 -1
v -5 16 -2
v -5 17 -2
v -3 16 -2
v -3 17 -2
v -5 0 2
v -4 0 2
v 0 0 2
v 1 0 2
v -5 0 1
v -4 0 1
v 0 0 1
v 1 0 1
v -4 4 2
v 0 4 2
v -4 4 1
v 0 4 1
v -4 5 3
v 0 5 3
v -4 5 2
v 0 5 2
v -4 5 1
v 0 5 1
v -4 5 -0
v 0 5 -0
v -5 6 3
v -4 6 3
v 0 6 3
v 1 6 3
v -5 6 2
v -4 6 2
v 0 6 2
v 1 6 2
v -5 6 1
v -4 6 1
v 0 6 1
v 1 6 1
v -5 6 -0
v -4 6 -0
v 0 6 -0
v 1 6 -0
v -10 9 2
v -8 9 2
v -5 9 2
v 1 9 2
v 4 9 2
v 6 9 2
v -10 9 1
v -8 9 1
v -5 9 1
v 1 9 1
v 4 9 1
v 6 9 1
v -5 13 3
v -3 13 3
v -1 13 3
v 1 13 3
v -3 13 2
v -1 13 2
v -3 13 1
v -1 13 1
v -5 13 -0
v 1 13 -0
v -6 15 2
v -5 15 2
v 1 15 2
v 2 15 2
v -6 15 1
v -5 15 1
v 1 15 1
v 2 15 1
v -5 16 5
v -3 16 5
v -6 16 4
v -5 16 4
v -3 16 4
v 1 16 4
v -7 16 3
v -6 16 3
v -5 16 3
v -4 16 3
v -3 16 3
v -1 16 3
v 0 16 3
v 1 16 3
v 2 16 3
v -6 16 2
v -5 16 2
v 1 16 2
v 2 16 2
v -6 16 1
v -5 16 1
v 1 16 1
v 2 16 1
v -7 16 -0
v -6 16 -0
v -5 16 -0
v 1 16 -0
v 2 16 -0
v -6 16 -1
v -5 16 -1
v -3 16 -1
v 1 16 -1
v -5 16 -2
v -3 16 -2
v -10 10 2
v -8 10 2
v -5 10 2
v 1 10 2
v 4 10 2
v 6 10 2
v -10 10 1
v -8 10 1
v -5 10 1
v 1 10 1
v 4 10 1
v 6 10 1
v -5 11 3
v -4 11 3
v 0 11 3
v 1 11 3
v -5 11 -0
v -4 11 -0
v 0 11 -0
v 1 11 -0
v -4 12 3
v 0 12 3
v -3 12 2
v -1 12 2
v -3 12 1
v -1 12 1
v -4 12 -0
v 0 12 -0
v -5 17 5
v -3 17 5
v -6 17 4
v -5 17 4
v -3 17 4
v 1 17 4
v -7 17 3
v -6 17 3
v -5 17 3
v -3 17 3
v 1 17 3
v 2 17 3
v -7 17 -0
v -6 17 -0
v -5 17 -0
v -3 17 -0
v 1 17 -0
v 2 17 -0
v -6 17 -1
v -5 17 -1
v -3 17 -1
v 1 17 -1
v -5 17 -2
v -3 17 -2
v -5 18 4
v -3 18 4
v -6 18 3
v -5 18 3
v -3 18 3
v 1 18 3
v -6 18 -0
v -5 18 -0
v -3 18 -0
v 1 18 -0
v -5 18 -1
v -3 18 -1
v -5 19 3
v -3 19 3
v -5 19 -0
v -3 19 -0

# faces
f 3/1/1 2/1/1 1/1/1
f 4/1/1 2/1/1 3/1/1
f 7/5/1 6/5/1 5/5/1
f 8/5/1 6/5/1 7/5/1
f 13/5/1 10/5/1 9/5/1
f 14/5/1 10/5/1 13/5/1
f 17/5/1 12/5/1 11/5/1
f 18/5/1 12/5/1 17/5/1
f 19/5/1 16/5/1 15/5/1
f 20/5/1 16/5/1 19/5/1
f 21/5/1 19/5/1 18/5/1
f 22/5/1 19/5/1 21/5/1
f 25/1/1 24/1/1 23/1/1
f 26/1/1 24/1/1 25/1/1
f 28/5/1 26/5/1 25/5/1
f 29/5/1 26/5/1 28/5/1
f 31/4/1 29/4/1 28/4/1
f 31/4/1 30/4/1 29/4/1
f 31/4/1 28/4/1 27/4/1
f 32/4/1 30/4/1 31/4/1
f 33/3/1 32/3/1 31/3/1
f 34/3/1 32/3/1 33/3/1
f 35/4/1 34/4/1 33/4/1
f 36/4/1 34/4/1 35/4/1
f 37/4/1 34/4/1 36/4/1
f 38/4/1 34/4/1 37/4/1
f 39/3/1 36/3/1 35/3/1
f 40/3/1 36/3/1 39/3/1
f 41/3/1 38/3/1 37/3/1
f 42/3/1 38/3/1 41/3/1
f 43/4/1 40/4/1 39/4/1
f 43/4/1 41/4/1 40/4/1
f 43/4/1 42/4/1 41/4/1
f 44/4/1 42/4/1 43/4/1
f 47/1/1 46/1/1 45/1/1
f 48/1/1 46/1/1 47/1/1
f 49/6/1 48/6/1 47/6/1
f 50/1/1 46/1/1 48/1/1
f 50/6/1 48/6/1 49/6/1
f 51/1/1 46/1/1 50/1/1
f 54/1/1 50/1/1 49/1/1
f 55/1/1 50/1/1 54/1/1
f 56/1/1 46/1/1 51/1/1
f 57/1/1 46/1/1 56/1/1
f 60/5/1 53/5/1 52/5/1
f 61/5/1 53/5/1 60/5/1
f 64/5/1 59/5/1 58/5/1
f 65/5/1 59/5/1 64/5/1
f 66/5/1 62/5/1 61/5/1
f 67/5/1 62/5/1 66/5/1
f 68/5/1 64/5/1 63/5/1
f 69/5/1 64/5/1 68/5/1
f 70/5/1 68/5/1 67/5/1
f 71/5/1 68/5/1 70/5/1
f 76/3/1 73/3/1 72/3/1
f 77/3/1 73/3/1 76/3/1
f 78/3/1 75/3/1 74/3/1
f 79/3/1 75/3/1 78/3/1
f 82/3/1 81/3/1 80/3/1
f 83/3/1 81/3/1 82/3/1
f 86/1/1 85/1/1 84/1/1
f 87/1/1 85/1/1 86/1/1
f 90/1/1 89/1/1 88/1/1
f 91/1/1 89/1/1 90/1/1
f 92/5/1 91/5/1 90/5/1
f 93/5/1 91/5/1 92/5/1
f 94/1/2 95/1/2 96/1/2
f 96/1/2 95/1/2 97/1/2
f 96/5/2 97/5/2 98/5/2
f 98/5/2 97/5/2 99/5/2
f 100/5/2 101/5/2 104/5/2
f 104/5/2 101/5/2 105/5/2
f 102/5/2 103/5/2 108/5/2
f 108/5/2 103/5/2 109/5/2
f 105/5/2 106/5/2 110/5/2
f 110/5/2 106/5/2 111/5/2
f 107/5/2 108/5/2 112/5/2
f 112/5/2 108/5/2 113/5/2
f 111/5/2 112/5/2 114/5/2
f 114/5/2 112/5/2 115/5/2
f 116/1/2 117/1/2 118/1/2
f 118/1/2 117/1/2 119/1/2
f 120/3/2 121/3/2 124/3/2
f 124/3/2 121/3/2 125/3/2
f 122/3/2 123/3/2 126/3/2
f 126/3/2 123/3/2 127/3/2
f 128/3/2 129/3/2 130/3/2
f 130/3/2 129/3/2 131/3/2
f 132/1/2 133/1/2 134/1/2
f 134/1/2 133/1/2 135/1/2
f 134/5/2 135/5/2 137/5/2
f 137/5/2 135/5/2 138/5/2
f 137/4/2 138/4/2 140/4/2
f 138/4/2 139/4/2 140/4/2
f 136/4/2 137/4/2 140/4/2
f 140/4/2 139/4/2 141/4/2
f 140/3/2 141/3/2 142/3/2
f 142/3/2 141/3/2 143/3/2
f 142/4/2 143/4/2 144/4/2
f 144/4/2 143/4/2 145/4/2
f 145/4/2 143/4/2 146/4/2
f 146/4/2 143/4/2 147/4/2
f 144/3/2 145/3/2 148/3/2
f 148/3/2 145/3/2 149/3/2
f 146/3/2 147/3/2 150/3/2
f 150/3/2 147/3/2 151/3/2
f 148/4/2 149/4/2 152/4/2
f 149/4/2 150/4/2 152/4/2
f 150/4/2 151/4/2 152/4/2
f 152/4/2 151/4/2 153/4/2
f 154/1/2 155/1/2 156/1/2
f 156/1/2 155/1/2 157/1/2
f 154/1/2 156/1/2 159/1/2
f 159/1/2 156/1/2 160/1/2
f 157/1/2 155/1/2 161/1/2
f 161/1/2 155/1/2 162/1/2
f 158/5/2 159/5/2 164/5/2
f 164/5/2 159/5/2 165/5/2
f 162/5/2 163/5/2 166/5/2
f 166/5/2 163/5/2 167/5/2
f 165/5/2 166/5/2 168/5/2
f 168/5/2 166/5/2 169/5/2
f 170/5/2 171/5/2 173/5/2
f 173/5/2 171/5/2 174/5/2
f 172/5/2 173/5/2 176/5/2
f 174/5/2 175/5/2 176/5/2
f 173/5/2 174/5/2 176/5/2
f 176/5/2 175/5/2 177/5/2
f 178/1/2 179/1/2 180/1/2
f 180/1/2 179/1/2 181/1/2
f 184/5/3 183/5/3 182/5/3
f 185/5/3 183/5/3 184/5/3
f 188/5/3 187/5/3 186/5/3
f 189/5/3 187/5/3 188/5/3
f 192/5/3 190/5/3 189/5/3
f 193/5/3 190/5/3 192/5/3
f 194/5/3 192/5/3 191/5/3
f 195/5/3 192/5/3 194/5/3
f 198/5/3 197/5/3 196/5/3
f 199/5/3 197/5/3 198/5/3
f 211/5/3 200/5/3 199/5/3
f 212/5/3 200/5/3 211/5/3
f 215/4/3 202/4/3 201/4/3
f 216/4/3 206/4/3 205/4/3
f 218/1/3 208/1/3 207/1/3
f 218/6/3 209/6/3 208/6/3
f 219/1/3 210/1/3 209/1/3
f 219/6/3 209/6/3 218/6/3
f 220/1/3 210/1/3 219/1/3
f 221/1/3 218/1/3 207/1/3
f 221/1/3 219/1/3 218/1/3
f 222/1/3 219/1/3 221/1/3
f 223/6/3 220/6/3 219/6/3
f 223/1/3 219/1/3 222/1/3
f 224/6/3 220/6/3 223/6/3
f 226/5/3 213/5/3 212/5/3
f 227/5/3 213/5/3 226/5/3
f 228/6/3 222/6/3 221/6/3
f 229/1/3 224/1/3 223/1/3
f 229/6/3 222/6/3 228/6/3
f 229/1/3 223/1/3 222/1/3
f 230/1/3 224/1/3 229/1/3
f 231/1/3 224/1/3 230/1/3
f 232/3/3 215/3/3 214/3/3
f 233/4/3 202/4/3 215/4/3
f 233/3/3 215/3/3 232/3/3
f 234/3/3 217/3/3 216/3/3
f 234/4/3 216/4/3 205/4/3
f 235/3/3 217/3/3 234/3/3
f 236/1/3 229/1/3 228/1/3
f 236/1/3 230/1/3 229/1/3
f 236/2/3 231/2/3 230/2/3
f 237/2/3 231/2/3 236/2/3
f 238/4/3 202/4/3 233/4/3
f 239/3/3 203/3/3 202/3/3
f 239/4/3 202/4/3 238/4/3
f 240/4/3 204/4/3 203/4/3
f 240/3/3 203/3/3 239/3/3
f 241/3/3 205/3/3 204/3/3
f 241/4/3 204/4/3 240/4/3
f 242/4/3 234/4/3 205/4/3
f 242/3/3 205/3/3 241/3/3
f 243/4/3 234/4/3 242/4/3
f 244/1/3 237/1/3 236/1/3
f 244/1/3 236/1/3 228/1/3
f 245/1/3 237/1/3 244/1/3
f 246/5/3 226/5/3 225/5/3
f 247/5/3 226/5/3 246/5/3
f 248/5/3 246/5/3 245/5/3
f 249/5/3 246/5/3 248/5/3
f 252/1/3 251/1/3 250/1/3
f 253/1/3 251/1/3 252/1/3
f 259/5/3 253/5/3 252/5/3
f 260/5/3 253/5/3 259/5/3
f 261/5/3 255/5/3 254/5/3
f 262/5/3 255/5/3 261/5/3
f 263/1/3 257/1/3 256/1/3
f 264/5/3 258/5/3 257/5/3
f 264/1/3 257/1/3 263/1/3
f 265/5/3 258/5/3 264/5/3
f 266/5/3 258/5/3 265/5/3
f 267/5/3 258/5/3 266/5/3
f 270/1/3 269/1/3 268/1/3
f 271/1/3 269/1/3 270/1/3
f 274/5/3 266/5/3 265/5/3
f 275/5/3 266/5/3 274/5/3
f 277/1/3 273/1/3 272/1/3
f 278/5/3 276/5/3 275/5/3
f 278/1/3 273/1/3 277/1/3
f 278/5/3 274/5/3 273/5/3
f 278/5/3 275/5/3 274/5/3
f 279/5/3 276/5/3 278/5/3
f 284/5/3 283/5/3 282/5/3
f 285/5/3 283/5/3 284/5/3
f 286/5/3 281/5/3 280/5/3
f 287/5/3 281/5/3 286/5/3
f 288/1/3 287/1/3 286/1/3
f 289/1/3 287/1/3 288/1/3
f 290/1/4 291/1/4 292/1/4
f 292/1/4 291/1/4 293/1/4
f 292/5/4 293/5/4 299/5/4
f 299/5/4 293/5/4 300/5/4
f 294/5/4 295/5/4 301/5/4
f 301/5/4 295/5/4 302/5/4
f 296/1/4 297/1/4 303/1/4
f 297/5/4 298/5/4 304/5/4
f 303/1/4 297/1/4 304/1/4
f 304/5/4 298/5/4 305/5/4
f 305/5/4 298/5/4 306/5/4
f 306/5/4 298/5/4 307/5/4
f 308/1/4 309/1/4 310/1/4
f 310/1/4 309/1/4 311/1/4
f 305/5/4 306/5/4 314/5/4
f 314/5/4 306/5/4 315/5/4
f 312/1/4 313/1/4 317/1/4
f 315/5/4 316/5/4 318/5/4
f 317/1/4 313/1/4 318/1/4
f 313/5/4 314/5/4 318/5/4
f 314/5/4 315/5/4 318/5/4
f 318/5/4 316/5/4 319/5/4
f 322/5/4 323/5/4 324/5/4
f 324/5/4 323/5/4 325/5/4
f 320/5/4 321/5/4 326/5/4
f 326/5/4 321/5/4 327/5/4
f 326/1/4 327/1/4 328/1/4
f 328/1/4 327/1/4 329/1/4
f 330/5/4 331/5/4 332/5/4
f 332/5/4 331/5/4 333/5/4
f 333/5/4 334/5/4 343/5/4
f 343/5/4 334/5/4 344/5/4
f 335/4/4 336/4/4 347/4/4
f 339/4/4 340/4/4 348/4/4
f 344/5/4 345/5/4 351/5/4
f 351/5/4 345/5/4 352/5/4
f 346/3/4 347/3/4 353/3/4
f 347/4/4 336/4/4 354/4/4
f 353/3/4 347/3/4 354/3/4
f 348/3/4 349/3/4 355/3/4
f 339/4/4 348/4/4 355/4/4
f 355/3/4 349/3/4 356/3/4
f 354/4/4 336/4/4 357/4/4
f 336/3/4 337/3/4 358/3/4
f 357/4/4 336/4/4 358/4/4
f 337/4/4 338/4/4 359/4/4
f 358/3/4 337/3/4 359/3/4
f 338/3/4 339/3/4 360/3/4
f 359/4/4 338/4/4 360/4/4
f 339/4/4 355/4/4 361/4/4
f 360/3/4 339/3/4 361/3/4
f 361/4/4 355/4/4 362/4/4
f 341/1/4 342/1/4 363/1/4
f 363/1/4 342/1/4 364/1/4
f 350/5/4 351/5/4 365/5/4
f 365/5/4 351/5/4 366/5/4
f 364/5/4 365/5/4 367/5/4
f 367/5/4 365/5/4 368/5/4
f 369/5/4 370/5/4 371/5/4
f 371/5/4 370/5/4 372/5/4
f 372/5/4 373/5/4 375/5/4
f 375/5/4 373/5/4 376/5/4
f 374/5/4 375/5/4 377/5/4
f 377/5/4 375/5/4 378/5/4
f 379/5/4 380/5/4 381/5/4
f 381/5/4 380/5/4 382/5/4
f 387/1/5 384/1/5 383/1/5
f 388/1/5 384/1/5 387/1/5
f 389/1/5 386/1/5 385/1/5
f 390/1/5 386/1/5 389/1/5
f 393/5/5 392/5/5 391/5/5
f 394/5/5 392/5/5 393/5/5
f 397/3/5 396/3/5 395/3/5
f 398/3/5 396/3/5 397/3/5
f 401/3/5 400/3/5 399/3/5
f 402/3/5 400/3/5 401/3/5
f 407/4/5 404/4/5 403/4/5
f 408/4/5 404/4/5 407/4/5
f 409/4/5 406/4/5 405/4/5
f 410/4/5 406/4/5 409/4/5
f 415/4/5 412/4/5 411/4/5
f 416/4/5 412/4/5 415/4/5
f 417/4/5 414/4/5 413/4/5
f 418/4/5 414/4/5 417/4/5
f 425/1/5 420/1/5 419/1/5
f 426/5/5 421/5/5 420/5/5
f 426/1/5 420/1/5 425/1/5
f 427/5/5 421/5/5 426/5/5
f 428/5/5 423/5/5 422/5/5
f 429/1/5 424/1/5 423/1/5
f 429/5/5 423/5/5 428/5/5
f 430/1/5 424/1/5 429/1/5
f 435/1/5 432/1/5 431/1/5
f 435/6/5 433/6/5 432/6/5
f 436/1/5 434/1/5 433/1/5
f 436/6/5 433/6/5 435/6/5
f 437/1/5 435/1/5 431/1/5
f 438/1/5 434/1/5 436/1/5
f 439/1/5 437/1/5 431/1/5
f 439/1/5 438/1/5 437/1/5
f 440/1/5 434/1/5 438/1/5
f 440/1/5 438/1/5 439/1/5
f 445/5/5 442/5/5 441/5/5
f 446/5/5 442/5/5 445/5/5
f 447/5/5 444/5/5 443/5/5
f 448/5/5 444/5/5 447/5/5
f 452/5/5 450/5/5 449/5/5
f 453/5/5 450/5/5 452/5/5
f 456/5/5 452/5/5 451/5/5
f 456/5/5 454/5/5 453/5/5
f 456/5/5 453/5/5 452/5/5
f 457/5/5 454/5/5 456/5/5
f 458/5/5 454/5/5 457/5/5
f 459/5/5 454/5/5 458/5/5
f 460/5/5 454/5/5 459/5/5
f 461/5/5 454/5/5 460/5/5
f 462/5/5 454/5/5 461/5/5
f 464/5/5 456/5/5 455/5/5
f 464/5/5 457/5/5 456/5/5
f 465/5/5 457/5/5 464/5/5
f 466/5/5 463/5/5 462/5/5
f 467/5/5 463/5/5 466/5/5
f 468/5/5 464/5/5 455/5/5
f 472/5/5 468/5/5 455/5/5
f 472/5/5 469/5/5 468/5/5
f 473/5/5 469/5/5 472/5/5
f 474/5/5 469/5/5 473/5/5
f 475/5/5 471/5/5 470/5/5
f 476/5/5 471/5/5 475/5/5
f 477/5/5 474/5/5 473/5/5
f 477/5/5 475/5/5 474/5/5
f 478/5/5 475/5/5 477/5/5
f 479/5/5 475/5/5 478/5/5
f 480/5/5 475/5/5 479/5/5
f 481/5/5 479/5/5 478/5/5
f 482/5/5 479/5/5 481/5/5
f 483/1/6 484/1/6 489/1/6
f 484/5/6 485/5/6 490/5/6
f 489/1/6 484/1/6 490/1/6
f 490/5/6 485/5/6 491/5/6
f 486/5/6 487/5/6 492/5/6
f 487/1/6 488/1/6 493/1/6
f 492/5/6 487/5/6 493/5/6
f 493/1/6 488/1/6 494/1/6
f 495/4/6 496/4/6 499/4/6
f 499/4/6 496/4/6 500/4/6
f 497/4/6 498/4/6 501/4/6
f 501/4/6 498/4/6 502/4/6
f 503/3/6 504/3/6 505/3/6
f 505/3/6 504/3/6 506/3/6
f 503/3/6 505/3/6 507/3/6
f 506/3/6 504/3/6 508/3/6
f 503/3/6 507/3/6 509/3/6
f 507/3/6 508/3/6 509/3/6
f 508/3/6 504/3/6 510/3/6
f 509/3/6 508/3/6 510/3/6
f 511/5/6 512/5/6 514/5/6
f 514/5/6 512/5/6 515/5/6
f 513/5/6 514/5/6 518/5/6
f 518/5/6 514/5/6 519/5/6
f 515/5/6 516/5/6 520/5/6
f 520/5/6 516/5/6 521/5/6
f 517/5/6 518/5/6 523/5/6
f 523/5/6 518/5/6 524/5/6
f 521/5/6 522/5/6 527/5/6
f 527/5/6 522/5/6 528/5/6
f 524/5/6 525/5/6 529/5/6
f 529/5/6 525/5/6 530/5/6
f 526/5/6 527/5/6 531/5/6
f 531/5/6 527/5/6 532/5/6
f 530/5/6 531/5/6 533/5/6
f 533/5/6 531/5/6 534/5/6
f 535/5/6 536/5/6 538/5/6
f 538/5/6 536/5/6 539/5/6
f 537/5/6 538/5/6 541/5/6
f 541/5/6 538/5/6 542/5/6
f 539/5/6 540/5/6 543/5/6
f 543/5/6 540/5/6 544/5/6
f 542/5/6 543/5/6 545/5/6
f 545/5/6 543/5/6 546/5/6
f 547/5/6 548/5/6 549/5/6
f 549/5/6 548/5/6 550/5/6
