# MagicaVoxel @ Ephtracy

# group
g Pushka

# material
mtllib Pushka.mtl
usemtl palette

# normals
vn -1 0 0
vn 1 0 0
vn 0 0 1
vn 0 0 -1
vn 0 -1 0
vn 0 1 0

# texcoords
vt 0.537109 0.5
vt 0.873047 0.5
vt 0.990234 0.5

# verts
v -3 0 -0
v -3 0 -1
v -3 1 -0
v -3 1 -1
v -2 0 -1
v -2 0 -2
v -2 0 -4
v -2 0 -5
v -2 1 3
v -2 1 2
v -2 1 1
v -2 1 -0
v -2 1 -1
v -2 1 -2
v -2 1 -4
v -2 1 -5
v -2 2 3
v -2 2 2
v -2 2 1
v -2 2 -1
v -2 2 -2
v -1 1 5
v -1 1 3
v -1 1 2
v -1 1 1
v -1 1 -3
v -1 1 -4
v -1 2 5
v -1 2 3
v -1 2 2
v -1 2 1
v -1 2 -0
v -1 2 -1
v -1 2 -3
v -1 2 -4
v -1 3 3
v -1 3 2
v -1 3 -0
v -1 3 -1
v 1 0 -0
v 1 0 -2
v 1 0 -3
v 1 0 -4
v 1 0 -5
v 1 1 -0
v 1 1 -2
v 1 1 -3
v 1 1 -4
v 1 1 -5
v -1 0 -0
v -1 0 -2
v -1 0 -3
v -1 0 -4
v -1 0 -5
v -1 1 -0
v -1 1 -2
v -1 1 -3
v -1 1 -4
v -1 1 -5
v 1 1 5
v 1 1 3
v 1 1 2
v 1 1 1
v 1 1 -3
v 1 1 -4
v 1 2 5
v 1 2 3
v 1 2 2
v 1 2 1
v 1 2 -0
v 1 2 -1
v 1 2 -3
v 1 2 -4
v 1 3 3
v 1 3 2
v 1 3 -0
v 1 3 -1
v 2 0 -1
v 2 0 -2
v 2 0 -4
v 2 0 -5
v 2 1 3
v 2 1 2
v 2 1 1
v 2 1 -0
v 2 1 -1
v 2 1 -2
v 2 1 -4
v 2 1 -5
v 2 2 3
v 2 2 2
v 2 2 1
v 2 2 -1
v 2 2 -2
v 3 0 -0
v 3 0 -1
v 3 1 -0
v 3 1 -1
v -1 1 5
v -1 2 5
v 1 1 5
v 1 2 5
v -2 1 3
v -2 2 3
v -1 1 3
v -1 2 3
v -1 3 3
v 1 1 3
v 1 2 3
v 1 3 3
v 2 1 3
v 2 2 3
v -2 1 1
v -2 2 1
v -1 1 1
v -1 2 1
v 1 1 1
v 1 2 1
v 2 1 1
v 2 2 1
v -3 0 -0
v -3 1 -0
v -2 1 -0
v -1 0 -0
v -1 1 -0
v -1 2 -0
v -1 3 -0
v 1 0 -0
v 1 1 -0
v 1 2 -0
v 1 3 -0
v 2 1 -0
v 3 0 -0
v 3 1 -0
v -1 0 -3
v -1 1 -3
v -1 2 -3
v 1 0 -3
v 1 1 -3
v 1 2 -3
v -2 1 2
v -2 2 2
v -1 1 2
v -1 2 2
v -1 3 2
v 1 1 2
v 1 2 2
v 1 3 2
v 2 1 2
v 2 2 2
v -3 0 -1
v -3 1 -1
v -2 0 -1
v -2 1 -1
v -1 2 -1
v -1 3 -1
v 1 2 -1
v 1 3 -1
v 2 0 -1
v 2 1 -1
v 3 0 -1
v 3 1 -1
v -2 1 -2
v -2 2 -2
v -1 1 -2
v -1 2 -2
v 1 1 -2
v 1 2 -2
v 2 1 -2
v 2 2 -2
v -1 0 -4
v -1 1 -4
v -1 2 -4
v 1 0 -4
v 1 1 -4
v 1 2 -4
v -2 0 -5
v -2 1 -5
v -1 0 -5
v -1 1 -5
v 1 0 -5
v 1 1 -5
v 2 0 -5
v 2 1 -5
v -3 0 -0
v -1 0 -0
v 1 0 -0
v 3 0 -0
v -3 0 -1
v -2 0 -1
v 2 0 -1
v 3 0 -1
v -2 0 -2
v -1 0 -2
v 1 0 -2
v 2 0 -2
v -1 0 -3
v 1 0 -3
v -2 0 -4
v -1 0 -4
v 1 0 -4
v 2 0 -4
v -2 0 -5
v -1 0 -5
v 1 0 -5
v 2 0 -5
v -1 1 5
v 1 1 5
v -2 1 3
v -1 1 3
v 1 1 3
v 2 1 3
v -2 1 2
v -1 1 2
v 1 1 2
v 2 1 2
v -2 1 1
v -1 1 1
v 1 1 1
v 2 1 1
v -2 1 -0
v -1 1 -0
v 1 1 -0
v 2 1 -0
v -1 1 -2
v 1 1 -2
v -3 1 -0
v -2 1 -0
v 2 1 -0
v 3 1 -0
v -3 1 -1
v -2 1 -1
v 2 1 -1
v 3 1 -1
v -2 1 -2
v -1 1 -2
v 1 1 -2
v 2 1 -2
v -1 1 -3
v 1 1 -3
v -2 1 -4
v -1 1 -4
v 1 1 -4
v 2 1 -4
v -2 1 -5
v -1 1 -5
v 1 1 -5
v 2 1 -5
v -1 2 5
v 1 2 5
v -2 2 3
v -1 2 3
v 1 2 3
v 2 2 3
v -2 2 2
v -1 2 2
v 1 2 2
v 2 2 2
v -2 2 1
v -1 2 1
v 1 2 1
v 2 2 1
v -1 2 -0
v 1 2 -0
v -2 2 -1
v -1 2 -1
v 1 2 -1
v 2 2 -1
v -2 2 -2
v -1 2 -2
v 1 2 -2
v 2 2 -2
v -1 2 -3
v 1 2 -3
v -1 2 -4
v 1 2 -4
v -1 3 3
v 1 3 3
v -1 3 2
v 1 3 2
v -1 3 -0
v 1 3 -0
v -1 3 -1
v 1 3 -1

# faces
f 3/3/1 2/3/1 1/3/1
f 4/3/1 2/3/1 3/3/1
f 13/3/1 6/3/1 5/3/1
f 14/1/1 7/1/1 6/1/1
f 14/3/1 6/3/1 13/3/1
f 15/3/1 8/3/1 7/3/1
f 15/1/1 7/1/1 14/1/1
f 16/3/1 8/3/1 15/3/1
f 17/3/1 10/3/1 9/3/1
f 18/3/1 10/3/1 17/3/1
f 19/3/1 12/3/1 11/3/1
f 19/3/1 13/3/1 12/3/1
f 20/1/1 14/1/1 13/1/1
f 20/3/1 13/3/1 19/3/1
f 21/1/1 14/1/1 20/1/1
f 28/2/1 23/2/1 22/2/1
f 29/2/1 23/2/1 28/2/1
f 30/1/1 25/1/1 24/1/1
f 31/1/1 25/1/1 30/1/1
f 34/3/1 27/3/1 26/3/1
f 35/3/1 27/3/1 34/3/1
f 36/3/1 30/3/1 29/3/1
f 37/3/1 30/3/1 36/3/1
f 38/2/1 33/2/1 32/2/1
f 39/2/1 33/2/1 38/2/1
f 45/3/1 41/3/1 40/3/1
f 46/1/1 42/1/1 41/1/1
f 46/3/1 41/3/1 45/3/1
f 47/1/1 42/1/1 46/1/1
f 48/3/1 44/3/1 43/3/1
f 49/3/1 44/3/1 48/3/1
f 50/3/2 51/3/2 55/3/2
f 51/1/2 52/1/2 56/1/2
f 55/3/2 51/3/2 56/3/2
f 56/1/2 52/1/2 57/1/2
f 53/3/2 54/3/2 58/3/2
f 58/3/2 54/3/2 59/3/2
f 60/2/2 61/2/2 66/2/2
f 66/2/2 61/2/2 67/2/2
f 62/1/2 63/1/2 68/1/2
f 68/1/2 63/1/2 69/1/2
f 64/3/2 65/3/2 72/3/2
f 72/3/2 65/3/2 73/3/2
f 67/3/2 68/3/2 74/3/2
f 74/3/2 68/3/2 75/3/2
f 70/2/2 71/2/2 76/2/2
f 76/2/2 71/2/2 77/2/2
f 78/3/2 79/3/2 86/3/2
f 79/1/2 80/1/2 87/1/2
f 86/3/2 79/3/2 87/3/2
f 80/3/2 81/3/2 88/3/2
f 87/1/2 80/1/2 88/1/2
f 88/3/2 81/3/2 89/3/2
f 82/3/2 83/3/2 90/3/2
f 90/3/2 83/3/2 91/3/2
f 84/3/2 85/3/2 92/3/2
f 85/3/2 86/3/2 92/3/2
f 86/1/2 87/1/2 93/1/2
f 92/3/2 86/3/2 93/3/2
f 93/1/2 87/1/2 94/1/2
f 95/3/2 96/3/2 97/3/2
f 97/3/2 96/3/2 98/3/2
f 101/2/3 100/2/3 99/2/3
f 102/2/3 100/2/3 101/2/3
f 105/3/3 104/3/3 103/3/3
f 106/3/3 104/3/3 105/3/3
f 109/3/3 107/3/3 106/3/3
f 110/3/3 107/3/3 109/3/3
f 111/3/3 109/3/3 108/3/3
f 112/3/3 109/3/3 111/3/3
f 115/3/3 114/3/3 113/3/3
f 116/3/3 114/3/3 115/3/3
f 119/3/3 118/3/3 117/3/3
f 120/3/3 118/3/3 119/3/3
f 123/3/3 122/3/3 121/3/3
f 124/3/3 123/3/3 121/3/3
f 125/3/3 123/3/3 124/3/3
f 130/2/3 127/2/3 126/2/3
f 131/2/3 127/2/3 130/2/3
f 132/3/3 129/3/3 128/3/3
f 133/3/3 132/3/3 128/3/3
f 134/3/3 132/3/3 133/3/3
f 138/3/3 136/3/3 135/3/3
f 138/3/3 137/3/3 136/3/3
f 139/3/3 137/3/3 138/3/3
f 140/3/3 137/3/3 139/3/3
f 141/3/4 142/3/4 143/3/4
f 143/3/4 142/3/4 144/3/4
f 144/3/4 145/3/4 147/3/4
f 147/3/4 145/3/4 148/3/4
f 146/3/4 147/3/4 149/3/4
f 149/3/4 147/3/4 150/3/4
f 151/3/4 152/3/4 153/3/4
f 153/3/4 152/3/4 154/3/4
f 155/2/4 156/2/4 157/2/4
f 157/2/4 156/2/4 158/2/4
f 159/3/4 160/3/4 161/3/4
f 161/3/4 160/3/4 162/3/4
f 163/1/4 164/1/4 165/1/4
f 165/1/4 164/1/4 166/1/4
f 165/2/4 166/2/4 167/2/4
f 167/2/4 166/2/4 168/2/4
f 167/1/4 168/1/4 169/1/4
f 169/1/4 168/1/4 170/1/4
f 171/3/4 172/3/4 174/3/4
f 172/3/4 173/3/4 174/3/4
f 174/3/4 173/3/4 175/3/4
f 175/3/4 173/3/4 176/3/4
f 177/3/4 178/3/4 179/3/4
f 179/3/4 178/3/4 180/3/4
f 181/3/4 182/3/4 183/3/4
f 183/3/4 182/3/4 184/3/4
f 189/3/5 186/3/5 185/3/5
f 190/3/5 186/3/5 189/3/5
f 191/3/5 188/3/5 187/3/5
f 192/3/5 188/3/5 191/3/5
f 193/3/5 186/3/5 190/3/5
f 194/3/5 186/3/5 193/3/5
f 195/3/5 191/3/5 187/3/5
f 196/3/5 191/3/5 195/3/5
f 197/1/5 194/1/5 193/1/5
f 198/1/5 196/1/5 195/1/5
f 199/1/5 197/1/5 193/1/5
f 200/3/5 198/3/5 197/3/5
f 200/1/5 197/1/5 199/1/5
f 201/1/5 196/1/5 198/1/5
f 201/3/5 198/3/5 200/3/5
f 202/1/5 196/1/5 201/1/5
f 203/3/5 200/3/5 199/3/5
f 204/3/5 200/3/5 203/3/5
f 205/3/5 202/3/5 201/3/5
f 206/3/5 202/3/5 205/3/5
f 210/2/5 208/2/5 207/2/5
f 211/2/5 208/2/5 210/2/5
f 213/3/5 210/3/5 209/3/5
f 214/2/5 211/2/5 210/2/5
f 214/3/5 210/3/5 213/3/5
f 215/3/5 212/3/5 211/3/5
f 215/2/5 211/2/5 214/2/5
f 216/3/5 212/3/5 215/3/5
f 218/1/5 215/1/5 214/1/5
f 219/1/5 215/1/5 218/1/5
f 221/3/5 218/3/5 217/3/5
f 222/1/5 219/1/5 218/1/5
f 222/3/5 218/3/5 221/3/5
f 223/3/5 220/3/5 219/3/5
f 223/1/5 219/1/5 222/1/5
f 224/3/5 220/3/5 223/3/5
f 225/2/5 223/2/5 222/2/5
f 226/2/5 223/2/5 225/2/5
f 227/3/6 228/3/6 231/3/6
f 231/3/6 228/3/6 232/3/6
f 229/3/6 230/3/6 233/3/6
f 233/3/6 230/3/6 234/3/6
f 235/1/6 236/1/6 239/1/6
f 237/1/6 238/1/6 240/1/6
f 235/1/6 239/1/6 241/1/6
f 241/1/6 239/1/6 242/1/6
f 240/1/6 238/1/6 243/1/6
f 243/1/6 238/1/6 244/1/6
f 241/3/6 242/3/6 245/3/6
f 245/3/6 242/3/6 246/3/6
f 243/3/6 244/3/6 247/3/6
f 247/3/6 244/3/6 248/3/6
f 249/2/6 250/2/6 252/2/6
f 252/2/6 250/2/6 253/2/6
f 251/3/6 252/3/6 255/3/6
f 255/3/6 252/3/6 256/3/6
f 253/3/6 254/3/6 257/3/6
f 257/3/6 254/3/6 258/3/6
f 256/1/6 257/1/6 260/1/6
f 260/1/6 257/1/6 261/1/6
f 259/3/6 260/3/6 263/3/6
f 260/1/6 261/1/6 263/1/6
f 261/3/6 262/3/6 264/3/6
f 263/1/6 261/1/6 264/1/6
f 259/3/6 263/3/6 265/3/6
f 265/3/6 263/3/6 266/3/6
f 264/3/6 262/3/6 267/3/6
f 267/3/6 262/3/6 268/3/6
f 265/1/6 266/1/6 269/1/6
f 266/2/6 267/2/6 270/2/6
f 269/1/6 266/1/6 270/1/6
f 267/1/6 268/1/6 271/1/6
f 270/2/6 267/2/6 271/2/6
f 271/1/6 268/1/6 272/1/6
f 273/3/6 274/3/6 275/3/6
f 275/3/6 274/3/6 276/3/6
f 277/3/6 278/3/6 279/3/6
f 279/3/6 278/3/6 280/3/6
f 281/2/6 282/2/6 283/2/6
f 283/2/6 282/2/6 284/2/6
